<svg width="24" height="24" viewBox="0 0 24 24" fill="none" xmlns="http://www.w3.org/2000/svg">
<path d="M4.14991 19.0586C3.40314 16.183 3.10756 12.6607 3.0256 10.7486C3.00195 10.1968 3.44772 9.75 4 9.75H20C20.5523 9.75 20.998 10.1968 20.9744 10.7486C20.8924 12.6607 20.5969 16.183 19.8501 19.0586C19.6501 19.8287 19.0868 20.4292 18.3043 20.5736C17.133 20.7896 15.1135 21 12 21C8.88651 21 6.86695 20.7896 5.69568 20.5736C4.91323 20.4292 4.3499 19.8287 4.14991 19.0586Z" fill="#F2F3F5"/>
<path d="M3.0256 10.7486L2.27629 10.7807L3.0256 10.7486ZM4.14991 19.0586L4.87583 18.8701L4.14991 19.0586ZM5.69568 20.5736L5.83173 19.836H5.83173L5.69568 20.5736ZM20.9744 10.7486L21.7237 10.7807V10.7807L20.9744 10.7486ZM19.8501 19.0586L20.576 19.2471L19.8501 19.0586ZM18.3043 20.5736L18.1683 19.836L18.3043 20.5736ZM2.27629 10.7807C2.35909 12.7125 2.6576 16.296 3.42399 19.2471L4.87583 18.8701C4.14868 16.07 3.85603 12.6089 3.77491 10.7165L2.27629 10.7807ZM5.55963 21.3111C6.78925 21.5379 8.85701 21.75 12 21.75V20.25C8.91602 20.25 6.94465 20.0413 5.83173 19.836L5.55963 21.3111ZM20.2251 10.7165C20.144 12.6089 19.8513 16.07 19.1242 18.8701L20.576 19.2471C21.3424 16.296 21.6409 12.7125 21.7237 10.7807L20.2251 10.7165ZM18.1683 19.836C17.0553 20.0413 15.084 20.25 12 20.25V21.75C15.143 21.75 17.2107 21.5379 18.4404 21.3111L18.1683 19.836ZM4 10.5H20V9H4V10.5ZM19.1242 18.8701C18.986 19.4022 18.6218 19.7523 18.1683 19.836L18.4404 21.3111C19.5517 21.1061 20.3142 20.2552 20.576 19.2471L19.1242 18.8701ZM21.7237 10.7807C21.7664 9.78447 20.9608 9 20 9V10.5C20.1438 10.5 20.2297 10.6092 20.2251 10.7165L21.7237 10.7807ZM3.42399 19.2471C3.68577 20.2552 4.44831 21.1061 5.55963 21.3111L5.83173 19.836C5.37815 19.7523 5.01403 19.4022 4.87583 18.8701L3.42399 19.2471ZM3.77491 10.7165C3.77032 10.6092 3.85623 10.5 4 10.5V9C3.0392 9 2.23359 9.78447 2.27629 10.7807L3.77491 10.7165Z" fill="#353949"/>
<path d="M6 9.75C6 10.1642 6.33579 10.5 6.75 10.5C7.16421 10.5 7.5 10.1642 7.5 9.75H6ZM16.5 9.75C16.5 10.1642 16.8358 10.5 17.25 10.5C17.6642 10.5 18 10.1642 18 9.75H16.5ZM7.5 9.75V8H6V9.75H7.5ZM11.75 3.75H12.25V2.25H11.75V3.75ZM16.5 8V9.75H18V8H16.5ZM12.25 3.75C14.5972 3.75 16.5 5.65279 16.5 8H18C18 4.82436 15.4256 2.25 12.25 2.25V3.75ZM7.5 8C7.5 5.65279 9.40279 3.75 11.75 3.75V2.25C8.57436 2.25 6 4.82436 6 8H7.5Z" fill="#353949"/>
<path d="M9 14.25V16.5M15 14.25V16.5" stroke="#353949" stroke-width="1.5" stroke-linecap="round" stroke-linejoin="round"/>
</svg>
