<svg width="20" height="18" viewBox="0 0 20 18" fill="none" xmlns="http://www.w3.org/2000/svg">
<path d="M9.99998 3.58704C5.6516 -1.66734 1.06041 2.06612 1 6.09071C1 12.0822 8.2793 17 9.99998 17C11.7207 17 19 12.0822 19 6.09071C18.9396 2.06612 14.3484 -1.66734 9.99998 3.58704Z" fill="#F2F3F5"/>
<path d="M1 6.09071L0.25 6.07945V6.09071H1ZM9.99998 3.58704L9.42219 4.06521C9.56467 4.23738 9.77651 4.33704 9.99998 4.33704C10.2235 4.33704 10.4353 4.23738 10.5778 4.06521L9.99998 3.58704ZM19 6.09071H19.7501L19.7499 6.07945L19 6.09071ZM1.74992 6.10196C1.77636 4.34039 2.80175 2.68479 4.20482 2.04091C4.89023 1.72637 5.68269 1.64218 6.54398 1.91143C7.41449 2.18355 8.40208 2.83256 9.42219 4.06521L10.5778 3.10887C9.4237 1.71433 8.20674 0.859628 6.99153 0.479749C5.76711 0.096991 4.59267 0.212514 3.57919 0.677612C1.58446 1.59301 0.284052 3.81644 0.250084 6.07945L1.74992 6.10196ZM9.99998 16.25C9.93037 16.25 9.73579 16.2165 9.39891 16.0811C9.08065 15.9532 8.69109 15.7573 8.2537 15.4949C7.37949 14.9703 6.3541 14.2039 5.37754 13.2544C3.40233 11.3341 1.75 8.78951 1.75 6.09071H0.25C0.25 9.3834 2.23732 12.2935 4.33193 14.3299C5.39027 15.3589 6.50735 16.1963 7.48194 16.7811C7.96896 17.0733 8.43039 17.3084 8.83957 17.4729C9.23013 17.6299 9.63943 17.75 9.99998 17.75V16.25ZM19.7499 6.07945C19.7159 3.81644 18.4155 1.59301 16.4208 0.677611C15.4073 0.212514 14.2329 0.0969911 13.0084 0.479749C11.7932 0.859628 10.5763 1.71433 9.42218 3.10887L10.5778 4.06521C11.5979 2.83256 12.5855 2.18355 13.456 1.91143C14.3173 1.64218 15.1098 1.72637 15.7952 2.04091C17.1982 2.68479 18.2236 4.34039 18.2501 6.10196L19.7499 6.07945ZM9.99998 17.75C10.3605 17.75 10.7698 17.6299 11.1604 17.4729C11.5696 17.3084 12.031 17.0733 12.518 16.7811C13.4926 16.1963 14.6097 15.3589 15.6681 14.3299C17.7627 12.2935 19.75 9.3834 19.75 6.09071H18.25C18.25 8.78951 16.5977 11.3341 14.6224 13.2544C13.6459 14.2039 12.6205 14.9703 11.7463 15.4949C11.3089 15.7573 10.9193 15.9532 10.6011 16.0811C10.2642 16.2165 10.0696 16.25 9.99998 16.25V17.75Z" fill="#353949"/>
</svg>
