<svg width="16" height="20" viewBox="0 0 16 20" fill="none" xmlns="http://www.w3.org/2000/svg">
<path d="M7.4209 18.654L6.93847 19.2282L7.4209 18.654ZM14.2503 7.87975C14.2503 10.1196 13.1694 12.3037 11.8145 14.1479C10.468 15.9807 8.91197 17.395 8.09696 18.0797L9.06182 19.2282C9.92434 18.5036 11.5788 17.0022 13.0233 15.036C14.4595 13.0812 15.7503 10.5828 15.7503 7.87975H14.2503ZM7.90333 18.0797C7.08832 17.395 5.53231 15.9807 4.18579 14.1479C2.83089 12.3037 1.75 10.1196 1.75 7.87975H0.25C0.25 10.5828 1.5408 13.0812 2.97696 15.036C4.42151 17.0022 6.07595 18.5036 6.93847 19.2282L7.90333 18.0797ZM1.75 7.87975C1.75 4.42789 4.54828 1.62961 8.00014 1.62961V0.129608C3.71986 0.129608 0.25 3.59947 0.25 7.87975H1.75ZM8.00014 1.62961C11.452 1.62961 14.2503 4.42789 14.2503 7.87975H15.7503C15.7503 3.59947 12.2804 0.129608 8.00014 0.129608V1.62961ZM8.09696 18.0797C8.06261 18.1086 8.0288 18.1179 8.00014 18.1179C7.97149 18.1179 7.93768 18.1086 7.90333 18.0797L6.93847 19.2282C7.55696 19.7478 8.44332 19.7478 9.06182 19.2282L8.09696 18.0797Z" fill="#505567"/>
<path d="M7.99995 10.3358C9.58342 10.3358 10.8671 9.05218 10.8671 7.46871C10.8671 5.88524 9.58342 4.60158 7.99995 4.60158C6.41647 4.60158 5.13281 5.88524 5.13281 7.46871C5.13281 9.05218 6.41647 10.3358 7.99995 10.3358Z" stroke="#505567" stroke-width="1.5" stroke-linecap="round" stroke-linejoin="round"/>
</svg>
