<svg width="160" height="48" viewBox="0 0 160 48" fill="none" xmlns="http://www.w3.org/2000/svg">
<g clip-path="url(#clip0_708_16346)">
<path d="M39.5633 30.8465C39.561 30.8243 39.2945 28.5985 38.8294 26.7162L38.8086 26.6281C38.7093 26.2286 38.6083 25.8131 38.5077 25.3849C40.4585 25.2145 42.4027 25.394 44.2941 25.929C43.6556 30.6363 41.4481 35.0116 38.0391 38.3509C39.1204 36.1029 39.659 33.4769 39.5633 30.8465Z" fill="#3094A4"/>
<path d="M6.47658 25.2978C6.91221 25.2978 7.35949 25.3193 7.84046 25.3615C7.73262 25.8217 7.62232 26.272 7.51204 26.7162C7.04884 28.5984 6.78171 30.8243 6.77741 30.8587C6.67754 33.671 7.33008 36.547 8.58611 38.8943C4.88539 35.5189 2.4885 30.9818 1.79492 26.0091C3.33831 25.5379 4.91174 25.2978 6.47658 25.2978Z" fill="#3094A4"/>
<path d="M9.03233 27.09C9.14997 26.6085 9.27374 26.1042 9.39505 25.5822C16.9791 26.9865 22.4664 33.5692 22.4664 41.2893C22.4664 42.0711 22.3923 42.8903 22.233 43.8633C21.529 43.9895 20.8667 44.0508 20.2123 44.0508C19.0666 44.0508 17.9227 43.8915 16.8149 43.5814C16.2941 43.424 15.7825 43.2298 15.3064 43.0441C13.9015 42.4332 12.665 41.5798 11.6314 40.5051C9.35708 38.1394 8.22971 34.9534 8.37124 31.2999C8.37368 31.2748 8.61326 28.7909 9.03233 27.09Z" fill="#3094A4"/>
<path d="M9.72656 24.0522C10.1726 21.7876 10.3148 19.8877 10.1671 18.1341C13.3599 21.9151 17.9877 23.872 22.0867 25.6054C27.8307 28.0353 32.3683 29.9549 31.4603 35.7383L31.4585 35.7976C30.2613 39.4279 27.4447 42.2709 23.8848 43.4534C23.9841 42.6685 24.0326 41.9584 24.0326 41.2893C24.0326 32.837 18.0262 25.6134 9.72656 24.0522Z" fill="#E31059"/>
<path d="M31.9339 29.9611C31.9431 30.0126 31.9505 30.0647 31.9584 30.1191C30.143 27.3118 26.5189 25.78 22.698 24.1638C17.6954 22.0486 12.0346 19.6549 9.35156 13.9819C17.5611 14.6196 30.1638 20.5947 31.9339 29.9611Z" fill="#E31059"/>
<path d="M33.1437 11.3043C32.9139 11.8343 32.7197 12.4121 32.5389 13.0984C30.2928 13.629 28.03 14.4291 25.8109 15.4769C25.2828 14.9437 24.6872 14.5026 24.0352 14.1632C26.5129 12.4256 28.3922 11.3534 33.1437 11.3043Z" fill="#E31059"/>
<path d="M22.0337 13.4789C21.584 13.3967 21.1607 13.3562 20.7433 13.3562C19.616 13.3562 18.477 13.6393 17.4446 14.1755C17.0826 14.0479 16.7204 13.9242 16.3656 13.8122C15.3614 13.4176 14.7383 12.8979 14.7383 12.4587C14.7383 11.6989 17.5053 10.2192 22.576 10.2192C24.1291 10.2192 25.678 10.3798 26.999 10.6708C25.1843 11.3595 23.6659 12.3539 22.0337 13.4789Z" fill="#E31059"/>
<path d="M24.3105 16.217C23.9424 16.4154 23.5784 16.6311 23.2261 16.8377L23.1906 16.8584C22.0644 16.1955 20.8617 15.5865 19.6094 15.0394C21.2911 14.6839 23.0171 15.1374 24.3105 16.217Z" fill="#E31059"/>
<path d="M33.6457 31.9566C33.6457 31.1289 33.5898 30.3894 33.4728 29.681C32.4147 24.0584 28.1858 20.1548 24.7363 17.8339C28.6766 15.6613 33.2957 14.2244 37.1987 13.9604C35.1982 18.5158 36.4157 23.4609 37.3089 27.09C37.7287 28.7909 37.9671 31.2748 37.9683 31.2906C38.1117 34.9534 36.9842 38.1394 34.7093 40.5051C34.0378 41.2029 33.251 41.8144 32.3044 42.3763C30.2715 43.3547 28.1308 44.0005 25.9275 44.3001C30.5828 42.0613 33.6457 37.2253 33.6457 31.9566Z" fill="#E31059"/>
<path d="M26.6997 45.7756C25.6041 46.3576 24.3898 46.6627 23.143 46.6627C21.9225 46.6627 20.7295 46.3699 19.6494 45.8105C20.8117 45.9869 21.9267 46.0727 23.0388 46.0727C24.2525 46.0727 25.4804 45.9735 26.6997 45.7756ZM33.6459 31.9566C33.6459 31.1289 33.5901 30.3894 33.4731 29.681C32.4149 24.0584 28.1861 20.1548 24.7366 17.8339C28.6769 15.6613 33.296 14.2244 37.1989 13.9604C35.1984 18.5159 36.4159 23.4609 37.3092 27.09C37.7289 28.7909 37.9673 31.2748 37.9686 31.2907C38.112 34.9535 36.9845 38.1394 34.7095 40.5051C34.038 41.203 33.2513 41.8144 32.3047 42.3763C30.2717 43.3548 28.131 44.0006 25.9277 44.3002C30.5831 42.0614 33.6459 37.2253 33.6459 31.9566ZM9.03306 27.09C9.15069 26.6085 9.27447 26.1042 9.39577 25.5822C16.9798 26.9865 22.4671 33.5692 22.4671 41.2893C22.4671 42.0712 22.3931 42.8903 22.2337 43.8633C21.5298 43.9895 20.8674 44.0508 20.213 44.0508C19.0673 44.0508 17.9234 43.8915 16.8156 43.5815C16.2948 43.424 15.7832 43.2298 15.3071 43.0441C13.9022 42.4333 12.6658 41.5798 11.6321 40.5051C9.3578 38.1394 8.23043 34.9535 8.37196 31.2999C8.3744 31.2748 8.61398 28.7909 9.03306 27.09ZM39.1749 13.5285L39.8618 12.3502H38.4984C37.2271 12.3502 35.8051 12.4868 34.2653 12.7589C34.4902 12.0953 34.7738 11.466 35.1133 10.8852L35.8014 9.70881H34.4449C32.6932 9.61877 31.1675 9.69234 29.7761 9.92824C28.0281 9.11763 25.4081 8.65508 22.5744 8.65508C17.9013 8.65508 13.17 9.96134 13.17 12.4587C13.17 12.6259 13.1945 12.7963 13.2423 12.9702C11.3374 12.5591 9.52138 12.3502 7.84442 12.3502H6.48055L7.168 13.5285C9.1703 16.9596 8.77205 20.8122 8.17467 23.8164C7.59567 23.7611 7.02586 23.7348 6.47565 23.7348C4.85873 23.7348 3.23078 23.9665 1.63223 24.4259C1.59854 23.9713 1.56545 23.5033 1.56545 23.0357C1.56545 11.1965 11.1983 1.56428 23.0388 1.56428C34.878 1.56428 44.5098 11.1965 44.5098 23.0357C44.5098 23.4641 44.479 23.8929 44.4503 24.3089L44.4472 24.3512C42.383 23.8035 40.2742 23.6319 38.1731 23.844C37.5727 20.8269 37.1708 16.9626 39.1749 13.5285ZM24.3107 16.2171C23.9426 16.4155 23.5786 16.6311 23.2263 16.8377L23.1908 16.8584C22.0646 16.1956 20.8619 15.5865 19.6096 15.0394C21.2913 14.684 23.0173 15.1374 24.3107 16.2171ZM22.0322 13.4789C21.5825 13.3967 21.1591 13.3562 20.7417 13.3562C19.6144 13.3562 18.4754 13.6394 17.443 14.1755C17.081 14.048 16.7188 13.9242 16.364 13.8122C15.3598 13.4176 14.7367 12.8979 14.7367 12.4587C14.7367 11.6989 17.5037 10.2192 22.5744 10.2192C24.1275 10.2192 25.6764 10.3798 26.9974 10.6708C25.1827 11.3595 23.6643 12.354 22.0322 13.4789ZM33.1441 11.3043C32.9144 11.8343 32.7202 12.4121 32.5393 13.0984C30.2932 13.629 28.0305 14.4291 25.8113 15.4769C25.2832 14.9437 24.6876 14.5027 24.0356 14.1632C26.5134 12.4256 28.3926 11.3534 33.1441 11.3043ZM31.9322 29.9612C31.9414 30.0126 31.9488 30.0647 31.9566 30.1191C30.1412 27.3118 26.5172 25.78 22.6963 24.1638C17.6936 22.0486 12.0328 19.6549 9.34983 13.9819C17.5594 14.6197 30.1621 20.5948 31.9322 29.9612ZM9.72664 24.0523C10.1727 21.7876 10.3148 19.8877 10.1672 18.1341C13.36 21.9152 17.9877 23.872 22.0867 25.6054C27.8308 28.0354 32.3684 29.9549 31.4603 35.7383L31.4586 35.7976C30.2614 39.428 27.4448 42.2709 23.8849 43.4534C23.9842 42.6685 24.0326 41.9584 24.0326 41.2893C24.0326 32.8371 18.0263 25.6134 9.72664 24.0523ZM6.47565 25.2978C6.91128 25.2978 7.35855 25.3193 7.83952 25.3615C7.73169 25.8217 7.62139 26.272 7.51111 26.7162C7.04791 28.5985 6.78078 30.8243 6.77648 30.8587C6.67661 33.671 7.32914 36.5471 8.58518 38.8944C4.88445 35.5189 2.48757 30.9818 1.79399 26.0091C3.33738 25.538 4.91081 25.2978 6.47565 25.2978ZM39.5639 30.8464C39.5616 30.8243 39.2951 28.5985 38.83 26.7162L38.8092 26.6281C38.7099 26.2286 38.6089 25.8131 38.5083 25.3849C40.4591 25.2145 42.4033 25.394 44.2947 25.929C43.6562 30.6363 41.4487 35.0116 38.0396 38.3509C39.121 36.1029 39.6596 33.4769 39.5639 30.8464ZM23.0388 0C10.3357 0 0 10.3332 0 23.0357C0 32.5822 5.76797 41.0014 14.6895 44.4846C15.2073 44.7082 15.6968 44.889 16.1863 45.036C17.9399 47.0647 20.4729 48.2264 23.143 48.2264C25.8714 48.2264 28.4403 47.0224 30.1964 44.9233C39.6976 41.8083 46.0764 33.0185 46.0764 23.0357C46.0764 10.3332 35.7413 0 23.0388 0Z" fill="#1B1C40"/>
<path d="M70.7106 15.6674H60.1666C60.1145 15.6674 60.0618 15.6888 60.0251 15.7256C59.9889 15.7642 59.9676 15.8144 59.9687 15.8665L59.9847 17.0895L59.9767 18.2897C59.9767 21.145 59.9153 23.4989 59.7935 25.2825C59.6735 27.027 59.3664 28.5181 58.8854 29.7148C58.4425 30.8043 57.8305 31.3145 56.9591 31.3145C56.7207 31.3145 56.4757 31.2717 56.2282 31.1926C55.9812 31.1117 55.7067 30.9782 55.3858 30.7851L55.1676 30.6523C55.1191 30.6228 55.0653 30.6131 55.0089 30.6302C54.9555 30.6462 54.9127 30.6822 54.8876 30.733L54.5267 31.477C54.4814 31.567 54.5126 31.6737 54.5954 31.7281L54.7639 31.8396C55.1351 32.0897 55.5102 32.2729 55.877 32.385C56.2496 32.5008 56.6075 32.559 56.9402 32.559C58.331 32.559 59.3573 31.8091 59.9908 30.3287C60.5661 28.9784 60.9239 27.3131 61.055 25.3805C61.1832 23.4837 61.2443 20.9017 61.2401 17.7065L61.2352 16.91H68.1053L68.1158 32.097C68.1158 32.2067 68.2023 32.2944 68.3125 32.2944H70.7332C70.7853 32.2944 70.8361 32.2747 70.873 32.236C70.9109 32.1987 70.9299 32.1491 70.9299 32.097L70.9073 15.8646C70.9073 15.755 70.8203 15.6674 70.7106 15.6674Z" fill="#1B1C40"/>
<path d="M80.7986 29.1297L80.7912 29.5174C80.4678 29.8208 80.1822 30.0702 79.9427 30.2614C79.7319 30.4292 79.4831 30.572 79.1964 30.6866C78.6965 30.8857 77.887 30.9415 77.3112 30.6559C77.0519 30.5302 76.8565 30.3601 76.7082 30.1332C76.5636 29.9188 76.4913 29.6799 76.4877 29.3975C76.4705 28.8049 76.6267 28.3233 76.9655 27.9251C77.3245 27.5041 77.8577 27.1617 78.5531 26.9104C79.1504 26.6947 79.9016 26.5244 80.7949 26.4025L80.7986 29.1297ZM82.9952 22.2276C82.6514 21.5646 82.1257 21.0586 81.4285 20.7222C80.7594 20.3994 79.9121 20.2375 78.9133 20.2375C78.0434 20.2375 77.2395 20.3686 76.5269 20.6296C75.8148 20.8864 75.1336 21.2766 74.4982 21.787L74.3377 21.9163C74.2604 21.9801 74.2402 22.0904 74.2935 22.1755L74.7489 22.9174C74.7794 22.9672 74.8303 23.0003 74.8903 23.0076C74.9344 23.0192 75.0055 22.9984 75.0502 22.9598L75.2555 22.7717C75.5588 22.504 75.8884 22.2704 76.2407 22.0805C76.5942 21.8912 76.9809 21.7423 77.392 21.6382C77.7921 21.5334 78.2234 21.4801 78.6712 21.4801C79.4034 21.4801 79.9193 21.7056 80.2442 22.1675C80.5994 22.6737 80.7832 23.4272 80.7912 24.4033V25.1912C79.3092 25.3615 78.0758 25.6128 77.1219 25.9351C76.0183 26.3081 75.1893 26.8027 74.6599 27.4037C74.1061 28.0335 73.839 28.8177 73.8695 29.7411C73.9001 30.3017 74.084 30.806 74.4166 31.2392C74.7354 31.6583 75.1549 31.9868 75.6647 32.2189C76.1673 32.4449 76.718 32.559 77.3019 32.559C77.9042 32.559 78.4606 32.4757 78.9556 32.3096C79.4359 32.1491 79.8765 31.9193 80.2655 31.6277C80.6135 31.3623 81.0105 31.0033 81.4482 30.5572L82.3366 32.1913C82.3708 32.2556 82.4369 32.2944 82.5105 32.2944H83.3125C83.3646 32.2944 83.4149 32.2747 83.4516 32.236C83.4902 32.1987 83.5092 32.1491 83.5092 32.097L83.5012 24.5846C83.494 23.657 83.3236 22.8654 82.9952 22.2276Z" fill="#1B1C40"/>
<path d="M88.8597 26.805H90.4417C91.0525 26.805 91.566 26.8951 91.9697 27.0727C92.3581 27.2492 92.6382 27.4808 92.8299 27.7848C93.0192 28.0838 93.1155 28.4532 93.1143 28.8858C93.1155 29.6002 92.9108 30.1277 92.4875 30.499C92.0585 30.8795 91.3619 31.073 90.4183 31.073H88.8597V26.805ZM92.428 24.7121C92.2693 24.9902 92.0359 25.201 91.7056 25.356C91.3655 25.5196 90.9268 25.6047 90.4012 25.6047H88.8536L88.8474 21.7208H90.2756C91.1353 21.7208 91.7595 21.8949 92.1321 22.2373C92.5014 22.5773 92.6829 23.0443 92.689 23.6588C92.6817 24.0644 92.594 24.4186 92.428 24.7121ZM93.8832 26.1727C93.8832 26.1708 93.8806 26.1708 93.8806 26.1708C93.8403 26.1531 93.7992 26.1366 93.7588 26.1206C94.0027 25.9871 94.219 25.8345 94.407 25.6667C95.0406 25.0882 95.3574 24.3843 95.3475 23.5762C95.3574 22.9425 95.1679 22.3795 94.7851 21.909C94.418 21.4524 93.8844 21.0971 93.2007 20.852C92.548 20.6179 91.7435 20.5003 90.8123 20.5003H86.3334C86.2813 20.5003 86.2318 20.5193 86.1949 20.5579C86.1557 20.5947 86.1367 20.6449 86.1367 20.697L86.1485 32.097C86.1485 32.2066 86.2354 32.2943 86.345 32.2943H90.4048C91.5445 32.2943 92.5113 32.1858 93.2741 31.9732C94.086 31.7447 94.7195 31.3819 95.1595 30.8894C95.6201 30.3796 95.8499 29.7258 95.848 28.9494C95.848 28.3332 95.6722 27.7768 95.3205 27.2909C94.9769 26.8241 94.4922 26.4472 93.8832 26.1727Z" fill="#1B1C40"/>
<path d="M103.432 25.5619L107.757 20.8306C107.809 20.7724 107.822 20.6896 107.792 20.6179C107.759 20.5463 107.689 20.5003 107.61 20.5003H106.444C106.391 20.5003 106.336 20.5205 106.3 20.5616L101.472 25.7481H100.484V20.697C100.484 20.5867 100.397 20.5003 100.287 20.5003H97.9584C97.9063 20.5003 97.8561 20.5193 97.8194 20.5579C97.7809 20.5947 97.7617 20.6449 97.7617 20.697L97.7735 32.097C97.7735 32.2066 97.8597 32.2943 97.9702 32.2943H100.287C100.397 32.2943 100.484 32.2066 100.484 32.097V26.9791L101.318 26.9882L105.775 32.2243C105.812 32.2684 105.867 32.2943 105.925 32.2943H108.773C108.851 32.2943 108.92 32.2494 108.953 32.1796C108.986 32.1086 108.974 32.0276 108.924 31.9677L103.432 25.5619Z" fill="#1B1C40"/>
<path d="M116.563 29.131L116.558 29.5157C116.244 29.8134 115.949 30.0702 115.71 30.2614C115.499 30.4317 115.248 30.572 114.962 30.6866C114.461 30.8857 113.656 30.9415 113.076 30.6559C112.819 30.5302 112.622 30.3601 112.473 30.1332C112.328 29.9188 112.257 29.6799 112.253 29.3975C112.236 28.8061 112.393 28.3252 112.733 27.9251C113.092 27.5041 113.625 27.1617 114.32 26.9104C114.918 26.6947 115.669 26.5227 116.56 26.4025L116.563 29.131ZM118.761 22.2276C118.417 21.5629 117.889 21.0561 117.194 20.7222C116.527 20.3994 115.68 20.2375 114.681 20.2375C113.809 20.2375 113.005 20.3686 112.294 20.6296C111.582 20.8864 110.898 21.2766 110.261 21.7883L110.102 21.9181C110.028 21.9801 110.007 22.0904 110.06 22.173L110.514 22.9151C110.545 22.9659 110.595 23.0003 110.653 23.0076C110.711 23.0192 110.771 22.9984 110.813 22.9598L111.023 22.7717C111.327 22.4996 111.66 22.2681 112.007 22.0805C112.361 21.8912 112.748 21.7423 113.159 21.6382C113.557 21.5334 113.988 21.4801 114.439 21.4801C115.171 21.4801 115.687 21.7056 116.011 22.1675C116.367 22.6737 116.551 23.4272 116.558 24.4033V25.1912C115.076 25.3615 113.842 25.6128 112.886 25.9351C111.786 26.3081 110.957 26.8027 110.425 27.4037C109.873 28.0335 109.606 28.8177 109.635 29.7411C109.667 30.3017 109.851 30.806 110.181 31.2392C110.501 31.6583 110.922 31.9868 111.432 32.2189C111.932 32.4449 112.483 32.559 113.069 32.559C113.671 32.559 114.228 32.4757 114.722 32.3096C115.199 32.1491 115.64 31.9212 116.033 31.6277C116.382 31.3605 116.78 31.0014 117.215 30.5572L118.104 32.1913C118.138 32.2556 118.204 32.2944 118.278 32.2944H119.08C119.132 32.2944 119.182 32.2747 119.219 32.236C119.257 32.1987 119.276 32.1491 119.276 32.097L119.268 24.5846C119.261 23.6589 119.091 22.8666 118.761 22.2276Z" fill="#1B1C40"/>
<path d="M137.317 17.5631V17.5606C136.753 16.9528 136.001 16.4791 135.087 16.1544C134.188 15.8297 133.135 15.6674 131.957 15.6674H127.084C127.032 15.6674 126.982 15.687 126.945 15.7256C126.906 15.7623 126.887 15.8125 126.887 15.8646L126.91 32.097C126.91 32.2066 126.999 32.2943 127.107 32.2943H129.528C129.58 32.2943 129.63 32.2747 129.667 32.2359C129.706 32.1986 129.725 32.149 129.725 32.097L129.716 16.91H131.509C132.23 16.91 132.883 17.0318 133.449 17.2714C134.007 17.5073 134.466 17.8437 134.815 18.2719C135.164 18.6971 135.396 19.2088 135.506 19.7926C135.634 20.4575 135.604 21.1743 135.425 21.92C135.251 22.6294 134.852 23.2513 134.235 23.7727C133.626 24.2831 132.742 24.5417 131.605 24.5417H130.233C130.16 24.5417 130.095 24.581 130.059 24.6428C130.024 24.7066 130.026 24.7838 130.064 24.8438L130.588 25.6838C130.625 25.742 130.689 25.7763 130.756 25.7763H131.837C133.559 25.7763 134.957 25.4656 135.995 24.85C137.051 24.2268 137.769 23.4389 138.13 22.505C138.49 21.5915 138.582 20.659 138.411 19.7314C138.254 18.9116 137.887 18.1813 137.317 17.5631Z" fill="#1B1C40"/>
<path d="M144.601 31.336C144.139 31.336 143.747 31.2006 143.401 30.92C143.026 30.6154 142.729 30.2283 142.497 29.7337C142.251 29.2197 142.068 28.6402 141.95 28.0145C141.766 27.0403 141.743 26.0159 141.884 24.9694C142.017 23.9469 142.323 23.081 142.786 22.3998C143.211 21.7809 143.745 21.4801 144.421 21.4801C144.875 21.4801 145.279 21.6186 145.617 21.8912C145.99 22.1945 146.297 22.594 146.533 23.0854C146.784 23.6013 146.968 24.1748 147.081 24.7893C147.265 25.7519 147.286 26.7738 147.147 27.8308C147.014 28.8607 146.709 29.7301 146.245 30.4121C145.824 31.0328 145.285 31.336 144.601 31.336ZM148.906 22.5928C148.408 21.8661 147.769 21.2884 147.011 20.8748C146.25 20.4599 145.393 20.2492 144.468 20.2492C143.336 20.2492 142.3 20.6045 141.388 21.3061C140.485 21.9972 139.814 22.9377 139.396 24.1012C138.978 25.2611 138.891 26.5092 139.134 27.8136C139.303 28.6946 139.632 29.5016 140.113 30.211C140.604 30.9316 141.235 31.5076 141.988 31.9236C142.754 32.3445 143.621 32.559 144.565 32.559C145.69 32.559 146.723 32.2031 147.633 31.4983C148.535 30.806 149.209 29.8693 149.632 28.7136C150.053 27.5661 150.142 26.3144 149.896 24.9902C149.728 24.1128 149.396 23.3072 148.906 22.5928Z" fill="#1B1C40"/>
<path d="M159.426 27.0929C159.052 26.6059 158.514 26.2248 157.835 25.9638C157.794 25.9486 157.754 25.9332 157.716 25.9178C158.285 25.6281 158.726 25.2623 159.029 24.8321C159.363 24.3548 159.532 23.8347 159.529 23.2863C159.529 22.6828 159.344 22.1449 158.979 21.6841C158.626 21.2338 158.116 20.8844 157.47 20.6449C156.287 20.2043 154.839 20.1792 153.391 20.5616C152.732 20.7375 152.101 20.9751 151.515 21.2705L151.304 21.3771C151.256 21.4003 151.22 21.4408 151.206 21.4911C151.189 21.5432 151.192 21.5977 151.217 21.6436L151.576 22.3372C151.625 22.434 151.742 22.4745 151.84 22.4243L152.04 22.3262C152.616 22.0511 153.163 21.8403 153.665 21.7018C154.715 21.4115 155.568 21.4176 156.073 21.7056C156.318 21.8452 156.495 22.0321 156.624 22.3011C156.764 22.575 156.83 22.9187 156.827 23.3249C156.832 23.7672 156.729 24.1496 156.519 24.4646C156.305 24.7893 155.993 25.0387 155.566 25.2303C155.114 25.4325 154.571 25.5502 153.961 25.5822H153.737C153.63 25.5822 153.542 25.6642 153.539 25.7708L153.52 26.3485L153.567 26.5882C153.585 26.6806 153.665 26.748 153.761 26.748L154.001 26.7505C154.741 26.7567 155.375 26.8724 155.885 27.0967C156.37 27.305 156.735 27.5869 156.973 27.933C157.205 28.2731 157.325 28.675 157.325 29.1253C157.325 29.5543 157.234 29.923 157.051 30.2515C156.869 30.5744 156.612 30.8238 156.26 31.0125C155.58 31.3703 154.493 31.3973 153.273 31.092C152.718 30.9531 152.15 30.7387 151.581 30.458L151.377 30.3581C151.287 30.3134 151.166 30.3501 151.115 30.445L150.747 31.1498C150.697 31.2472 150.733 31.3665 150.833 31.4169L151.04 31.5253C151.567 31.7936 152.178 32.0234 152.859 32.2047C153.541 32.3806 154.235 32.4701 154.92 32.4701C155.87 32.4701 156.725 32.3359 157.465 32.0736C158.241 31.7979 158.859 31.3918 159.3 30.866C159.769 30.317 160.006 29.6664 160 28.9317C160.008 28.213 159.815 27.593 159.426 27.0929Z" fill="#1B1C40"/>
</g>
<defs>
<clipPath id="clip0_708_16346">
<rect width="160" height="48" fill="white"/>
</clipPath>
</defs>
</svg>
