<svg width="20" height="18" viewBox="0 0 20 18" fill="none" xmlns="http://www.w3.org/2000/svg">
<path d="M1.49592 14.8199C1.61411 15.7778 2.38404 16.5321 3.34421 16.6302C5.48059 16.8483 7.70887 17.1168 9.99958 17.1168C12.2903 17.1168 14.5186 16.8483 16.655 16.6302C17.6151 16.5321 18.385 15.7778 18.5032 14.8199C18.7341 12.9491 18.9992 11.001 18.9992 8.99996C18.9992 6.9989 18.7341 5.05083 18.5032 3.18005C18.385 2.22215 17.6151 1.4678 16.655 1.36976C14.5186 1.15161 12.2903 0.883148 9.99958 0.883148C7.70887 0.883148 5.48059 1.15161 3.34421 1.36976C2.38404 1.4678 1.61411 2.22215 1.49592 3.18005C1.26509 5.05083 1 6.9989 1 8.99996C1 11.001 1.26509 12.9491 1.49592 14.8199Z" stroke="#505567" stroke-width="1.5" stroke-linejoin="round"/>
<path d="M1.44531 3.53452L8.76082 9.30255C9.48707 9.87517 10.5112 9.87517 11.2374 9.30255L18.553 3.53452" stroke="#505567" stroke-width="1.5" stroke-linejoin="round"/>
</svg>
