<svg width="20" height="20" viewBox="0 0 20 20" fill="none" xmlns="http://www.w3.org/2000/svg">
<g clip-path="url(#clip0_708_16371)">
<path d="M2.85788 5.10023C2.85788 4.50587 3.094 3.93585 3.51427 3.51557C3.93455 3.09529 4.50457 2.85918 5.09894 2.85918H6.1176C6.70934 2.85884 7.27693 2.62448 7.69652 2.20724L8.40959 1.49418C8.61785 1.28474 8.86546 1.11854 9.13817 1.00513C9.41089 0.891713 9.70334 0.833328 9.9987 0.833328C10.2941 0.833328 10.5865 0.891713 10.8592 1.00513C11.1319 1.11854 11.3795 1.28474 11.5878 1.49418L12.3009 2.20724C12.7205 2.62448 13.2881 2.85884 13.8798 2.85918H14.8985C15.4928 2.85918 16.0628 3.09529 16.4831 3.51557C16.9034 3.93585 17.1395 4.50587 17.1395 5.10023V6.1189C17.1398 6.71063 17.3742 7.27822 17.7915 7.69782L18.5045 8.41088C18.714 8.61914 18.8802 8.86675 18.9936 9.13947C19.107 9.41219 19.1654 9.70463 19.1654 9.99999C19.1654 10.2954 19.107 10.5878 18.9936 10.8605C18.8802 11.1332 18.714 11.3808 18.5045 11.5891L17.7915 12.3022C17.3742 12.7218 17.1398 13.2894 17.1395 13.8811V14.8998C17.1395 15.4941 16.9034 16.0641 16.4831 16.4844C16.0628 16.9047 15.4928 17.1408 14.8985 17.1408H13.8798C13.2881 17.1411 12.7205 17.3755 12.3009 17.7927L11.5878 18.5058C11.3795 18.7152 11.1319 18.8814 10.8592 18.9949C10.5865 19.1083 10.2941 19.1667 9.9987 19.1667C9.70334 19.1667 9.41089 19.1083 9.13817 18.9949C8.86546 18.8814 8.61785 18.7152 8.40959 18.5058L7.69652 17.7927C7.27693 17.3755 6.70934 17.1411 6.1176 17.1408H5.09894C4.50457 17.1408 3.93455 16.9047 3.51427 16.4844C3.094 16.0641 2.85788 15.4941 2.85788 14.8998V13.8811C2.85755 13.2894 2.62319 12.7218 2.20594 12.3022L1.49288 11.5891C1.28344 11.3808 1.11724 11.1332 1.00383 10.8605C0.890416 10.5878 0.832031 10.2954 0.832031 9.99999C0.832031 9.70463 0.890416 9.41219 1.00383 9.13947C1.11724 8.86675 1.28344 8.61914 1.49288 8.41088L2.20594 7.69782C2.62319 7.27822 2.85755 6.71063 2.85788 6.1189V5.10023Z" fill="#E2195B"/>
<path d="M2.85788 5.10024C2.85788 4.50587 3.094 3.93585 3.51427 3.51557C3.93455 3.09529 4.50457 2.85918 5.09894 2.85918H6.1176C6.70934 2.85884 7.27693 2.62448 7.69652 2.20724L8.40959 1.49418C8.61785 1.28474 8.86546 1.11854 9.13817 1.00513C9.41089 0.891713 9.70334 0.833328 9.9987 0.833328C10.2941 0.833328 10.5865 0.891713 10.8592 1.00513C11.1319 1.11854 11.3795 1.28474 11.5878 1.49418L12.3009 2.20724C12.7205 2.62448 13.2881 2.85884 13.8798 2.85918H14.8985C15.4928 2.85918 16.0628 3.09529 16.4831 3.51557C16.9034 3.93585 17.1395 4.50587 17.1395 5.10024V6.1189C17.1398 6.71063 17.3742 7.27822 17.7915 7.69782L18.5045 8.41088C18.714 8.61915 18.8802 8.86675 18.9936 9.13947C19.107 9.41219 19.1654 9.70463 19.1654 9.99999C19.1654 10.2954 19.107 10.5878 18.9936 10.8605C18.8802 11.1332 18.714 11.3808 18.5045 11.5891L17.7915 12.3022C17.3742 12.7218 17.1398 13.2894 17.1395 13.8811V14.8998C17.1395 15.4941 16.9034 16.0641 16.4831 16.4844C16.0628 16.9047 15.4928 17.1408 14.8985 17.1408H13.8798C13.2881 17.1411 12.7205 17.3755 12.3009 17.7927L11.5878 18.5058C11.3795 18.7152 11.1319 18.8814 10.8592 18.9949C10.5865 19.1083 10.2941 19.1667 9.9987 19.1667C9.70334 19.1667 9.41089 19.1083 9.13817 18.9949C8.86546 18.8814 8.61785 18.7152 8.40959 18.5058L7.69652 17.7927C7.27693 17.3755 6.70934 17.1411 6.1176 17.1408H5.09894C4.50457 17.1408 3.93455 16.9047 3.51427 16.4844C3.094 16.0641 2.85788 15.4941 2.85788 14.8998V13.8811C2.85755 13.2894 2.62319 12.7218 2.20594 12.3022L1.49288 11.5891C1.28344 11.3808 1.11724 11.1332 1.00383 10.8605C0.890416 10.5878 0.832031 10.2954 0.832031 9.99999C0.832031 9.70463 0.890416 9.41219 1.00383 9.13947C1.11724 8.86675 1.28344 8.61915 1.49288 8.41088L2.20594 7.69782C2.62319 7.27822 2.85755 6.71063 2.85788 6.1189V5.10024" stroke="#E2195B" stroke-width="2"/>
<path d="M6.66797 13.3333L13.3346 6.66667" stroke="white" stroke-width="2" stroke-linecap="round" stroke-linejoin="round"/>
<path d="M7.22352 7.77778C7.53035 7.77778 7.77908 7.52905 7.77908 7.22223C7.77908 6.9154 7.53035 6.66667 7.22352 6.66667C6.9167 6.66667 6.66797 6.9154 6.66797 7.22223C6.66797 7.52905 6.9167 7.77778 7.22352 7.77778Z" fill="white" stroke="white" stroke-width="2" stroke-linecap="round" stroke-linejoin="round"/>
<path d="M12.7782 13.3333C13.085 13.3333 13.3338 13.0846 13.3338 12.7778C13.3338 12.471 13.085 12.2222 12.7782 12.2222C12.4714 12.2222 12.2227 12.471 12.2227 12.7778C12.2227 13.0846 12.4714 13.3333 12.7782 13.3333Z" fill="white" stroke="white" stroke-width="2" stroke-linecap="round" stroke-linejoin="round"/>
</g>
<defs>
<clipPath id="clip0_708_16371">
<rect width="20" height="20" fill="white"/>
</clipPath>
</defs>
</svg>
