<svg width="20" height="20" viewBox="0 0 20 20" fill="none" xmlns="http://www.w3.org/2000/svg">
<path fill-rule="evenodd" clip-rule="evenodd" d="M2.11143 2.75015C3.24419 1.55893 3.64452 1.22482 4.12723 1.06933C4.46129 0.981944 4.81164 0.977092 5.148 1.05519C5.5908 1.1837 5.70794 1.28136 7.15993 2.72573C8.43557 3.99406 8.56301 4.13156 8.68529 4.37957C8.91912 4.8149 8.95565 5.32918 8.7857 5.7931C8.65698 6.14648 8.47419 6.38036 7.70057 7.15523L7.19597 7.66025C7.06346 7.79468 7.03232 7.99883 7.11874 8.16655C8.23983 10.0759 9.83037 11.6682 11.7399 12.7927C11.9597 12.9101 12.2303 12.8722 12.4092 12.6988L12.8945 12.2221C13.1945 11.9152 13.5121 11.626 13.8458 11.356C14.3699 11.0347 15.0229 11.0061 15.5732 11.2802C15.8423 11.4087 15.9311 11.4884 17.2466 12.7991C18.6034 14.1496 18.642 14.1921 18.7913 14.5017C19.0723 15.0144 19.0694 15.6353 18.7836 16.1453C18.6381 16.4331 18.5493 16.5372 17.786 17.316C17.3252 17.7863 16.8914 18.2155 16.8219 18.2784C16.1921 18.7989 15.3842 19.0543 14.5692 18.9904C13.078 18.8547 11.6347 18.3946 10.3407 17.6424C7.47418 16.1263 5.03395 13.9173 3.2429 11.2172C2.8528 10.6521 2.50598 10.0585 2.2054 9.4413C1.39906 8.06165 0.982659 6.4895 1.00055 4.89229C1.06211 4.05672 1.46351 3.28269 2.11143 2.75015Z" stroke="#7D818E" stroke-width="1.5" stroke-linecap="round" stroke-linejoin="round"/>
</svg>
