<svg width="20" height="17" viewBox="0 0 20 17" fill="none" xmlns="http://www.w3.org/2000/svg">
<path fill-rule="evenodd" clip-rule="evenodd" d="M14.5045 16.3552C15.6492 16.856 16.0785 15.8067 16.0785 15.8067L19.1072 0.591206C19.0834 -0.434286 17.7002 0.185779 17.7002 0.185779L0.743779 6.83956C0.743779 6.83956 -0.0670752 7.12574 0.00447074 7.62656C0.0760167 8.12739 0.71993 8.36587 0.71993 8.36587L4.98884 9.79679C4.98884 9.79679 6.27667 14.018 6.539 14.8289C6.77749 15.6159 6.99213 15.6397 6.99213 15.6397C7.23061 15.7351 7.44525 15.5682 7.44525 15.5682L10.2117 13.0641L14.5045 16.3552ZM15.2425 3.2861C15.2425 3.2861 15.8387 2.92837 15.8149 3.2861C15.8149 3.2861 15.9102 3.33379 15.6002 3.66768C15.314 3.95386 8.56486 10.0114 7.65861 10.8223C7.58707 10.87 7.53937 10.9415 7.53937 11.0369L7.27703 13.2787C7.22934 13.5172 6.9193 13.541 6.84776 13.3264L5.72687 9.65369C5.67917 9.5106 5.72687 9.34366 5.86996 9.24826L15.2425 3.2861Z" fill="white"/>
</svg>
