<svg width="24" height="24" viewBox="0 0 24 24" fill="none" xmlns="http://www.w3.org/2000/svg">
<rect width="24" height="24" rx="12" fill="#F2F3F5"/>
<path fill-rule="evenodd" clip-rule="evenodd" d="M20.587 6.81253C20.7122 6.34421 20.587 6 19.9915 6H18.0223C17.5215 6 17.2908 6.29732 17.1657 6.62526C17.1657 6.62526 16.1642 9.36521 14.7455 11.145C14.2865 11.6602 14.0779 11.8239 13.8276 11.8239C13.7024 11.8239 13.5212 11.6602 13.5212 11.1919V6.81253C13.5212 6.25042 13.3759 6 12.9586 6H9.8641C9.55128 6 9.36308 6.26084 9.36308 6.50811C9.36308 7.041 10.0723 7.16384 10.1454 8.66258V11.9179C10.1454 12.6316 10.0306 12.7611 9.78027 12.7611C9.11271 12.7611 7.48895 10.0086 6.52573 6.85942C6.33697 6.24726 6.14764 6 5.64437 6H3.67516C3.11253 6 3 6.29732 3 6.62526C3 7.21074 3.6677 10.1147 6.10854 13.9554C7.73595 16.578 10.0284 18 12.1146 18C13.3665 18 13.5212 17.6842 13.5212 17.1403V15.1579C13.5212 14.5263 13.6398 14.4003 14.036 14.4003C14.3283 14.4003 14.8289 14.5642 15.9973 15.8288C17.3325 17.3274 17.5525 18 18.3036 18H20.2728C20.8354 18 21.1167 17.6842 20.9544 17.061C20.7769 16.4398 20.1394 15.5389 19.2935 14.4706C18.8346 13.8616 18.146 13.2058 17.9376 12.8781C17.6454 12.4565 17.7288 12.2692 17.9376 11.8947C17.9376 11.8947 20.3366 8.10079 20.587 6.81268V6.81253Z" fill="#505567"/>
</svg>
