<svg width="21" height="13" viewBox="0 0 21 13" fill="none" xmlns="http://www.w3.org/2000/svg">
<path fill-rule="evenodd" clip-rule="evenodd" d="M20.5182 0.880238C20.6642 0.372895 20.5182 0 19.8234 0H17.526C16.9418 0 16.6726 0.322092 16.5266 0.677368C16.5266 0.677368 15.3582 3.64564 13.7031 5.57375C13.1676 6.13189 12.9243 6.30928 12.6322 6.30928C12.4861 6.30928 12.2747 6.1319 12.2747 5.62455V0.880238C12.2747 0.27129 12.1052 0 11.6183 0H8.00812C7.64316 0 7.42359 0.282579 7.42359 0.550448C7.42359 1.12775 8.25099 1.26083 8.33632 2.88446V6.41105C8.33632 7.18421 8.20241 7.32447 7.91032 7.32447C7.13149 7.32447 5.23711 4.34268 4.11335 0.93104C3.89313 0.267869 3.67225 0 3.0851 0H0.787684C0.131281 0 0 0.322092 0 0.677368C0 1.31163 0.778986 4.45763 3.62663 8.61832C5.52527 11.4595 8.19979 13 10.6337 13C12.0942 13 12.2747 12.6579 12.2747 12.0686V9.92105C12.2747 9.23684 12.4131 9.10034 12.8754 9.10034C13.2164 9.10034 13.8004 9.27789 15.1636 10.6479C16.7212 12.2713 16.9779 13 17.8542 13H20.1516C20.808 13 21.1362 12.6579 20.9468 11.9827C20.7397 11.3098 19.996 10.3338 19.0091 9.17646C18.4736 8.51671 17.6704 7.80633 17.4272 7.45122C17.0863 6.99451 17.1837 6.79165 17.4272 6.38591C17.4272 6.38591 20.2261 2.27586 20.5182 0.880408V0.880238Z" fill="white"/>
</svg>
