<svg width="19" height="19" viewBox="0 0 19 19" fill="none" xmlns="http://www.w3.org/2000/svg">
<path d="M16.2561 2.77297C14.4959 0.975676 12.0627 0 9.57766 0C4.297 0 0.0517711 4.26216 0.103542 9.44865C0.103542 11.0919 0.569482 12.6838 1.34605 14.1216L0 19L5.0218 17.7162C6.41962 18.4865 7.97275 18.8459 9.52589 18.8459C14.7548 18.8459 19 14.5838 19 9.3973C19 6.88108 18.0163 4.51892 16.2561 2.77297ZM9.57766 17.2541C8.17984 17.2541 6.78202 16.8946 5.59128 16.1757L5.28065 16.0216L2.27793 16.7919L3.0545 13.8649L2.84741 13.5568C0.569482 9.91081 1.65668 5.08378 5.3842 2.82432C9.11172 0.564865 13.9264 1.64324 16.2044 5.34054C18.4823 9.03784 17.3951 13.8135 13.6676 16.073C12.4768 16.8432 11.0272 17.2541 9.57766 17.2541ZM14.1335 11.5541L13.564 11.2973C13.564 11.2973 12.7357 10.9378 12.218 10.6811C12.1662 10.6811 12.1144 10.6297 12.0627 10.6297C11.9074 10.6297 11.8038 10.6811 11.7003 10.7324C11.7003 10.7324 11.6485 10.7838 10.9237 11.6054C10.8719 11.7081 10.7684 11.7595 10.6649 11.7595H10.6131C10.5613 11.7595 10.4578 11.7081 10.406 11.6568L10.1471 11.5541C9.57766 11.2973 9.05995 10.9892 8.64578 10.5784C8.54223 10.4757 8.38692 10.373 8.28338 10.2703C7.92098 9.91081 7.55858 9.5 7.29973 9.03784L7.24796 8.93513C7.19619 8.88378 7.19619 8.83243 7.14441 8.72973C7.14441 8.62703 7.14441 8.52432 7.19619 8.47297C7.19619 8.47297 7.40327 8.21622 7.55858 8.06216C7.66213 7.95946 7.7139 7.80541 7.81744 7.7027C7.92098 7.54865 7.97275 7.34324 7.92098 7.18919C7.86921 6.93243 7.24796 5.54595 7.09264 5.23784C6.9891 5.08378 6.88556 5.03243 6.73025 4.98108H6.57493C6.47139 4.98108 6.31608 4.98108 6.16076 4.98108C6.05722 4.98108 5.95368 5.03243 5.85014 5.03243L5.79837 5.08378C5.69482 5.13513 5.59128 5.23784 5.48774 5.28919C5.3842 5.39189 5.33243 5.49459 5.22888 5.5973C4.86649 6.05946 4.6594 6.62432 4.6594 7.18919C4.6594 7.6 4.76294 8.01081 4.91826 8.37027L4.97003 8.52432C5.43597 9.5 6.05722 10.373 6.88556 11.1432L7.09264 11.3486C7.24796 11.5027 7.40327 11.6054 7.50681 11.7595C8.59401 12.6838 9.83651 13.3514 11.2343 13.7108C11.3896 13.7622 11.5967 13.7622 11.752 13.8135C11.9074 13.8135 12.1144 13.8135 12.2698 13.8135C12.5286 13.8135 12.8392 13.7108 13.0463 13.6081C13.2016 13.5054 13.3052 13.5054 13.4087 13.4027L13.5123 13.3C13.6158 13.1973 13.7193 13.1459 13.8229 13.0432C13.9264 12.9405 14.03 12.8378 14.0817 12.7351C14.1853 12.5297 14.2371 12.273 14.2888 12.0162C14.2888 11.9135 14.2888 11.7595 14.2888 11.6568C14.2888 11.6568 14.2371 11.6054 14.1335 11.5541Z" fill="white"/>
</svg>
